<svg width="586" height="417" viewBox="0 0 586 417" fill="none" xmlns="http://www.w3.org/2000/svg">
<path fill-rule="evenodd" clip-rule="evenodd" d="M325.935 54.4965C302.273 21.8518 263.83 0.619141 220.428 0.619141C152.169 0.619141 96.1754 53.1385 90.6531 119.973C37.8798 138.31 0 188.481 0 247.499C0 322.041 60.4281 382.469 134.97 382.469C146.913 382.469 158.493 380.918 169.521 378.006C196.164 401.869 231.357 416.381 269.94 416.381C319.5 416.381 363.468 392.436 390.906 355.484C409.01 364.507 429.428 369.582 451.03 369.582C525.572 369.582 586 309.154 586 234.612C586 160.07 525.572 99.6423 451.03 99.6423C444.695 99.6423 438.463 100.079 432.36 100.923C425.207 68.7556 396.502 44.7048 362.181 44.7048C348.962 44.7048 336.577 48.2721 325.935 54.4965Z" fill="#0053F3"/>
</svg>
